<?xml version="1.0"?>
<svg xmlns="http://www.w3.org/2000/svg" xmlns:xlink="http://www.w3.org/1999/xlink" version="1.1" id="Capa_1" x="0px" y="0px" viewBox="0 0 31.546 31.546" style="enable-background:new 0 0 31.546 31.546;" xml:space="preserve" width="512px" height="512px"><g><g>
	<g>
		<path d="M30.171,16.66H0.888C0.397,16.66,0,16.263,0,15.773c0-0.49,0.397-0.888,0.888-0.888h29.283    c0.49,0,0.888,0.397,0.888,0.888C31.059,16.263,30.661,16.66,30.171,16.66z" data-original="#010002" class="active-path" data-old_color="#333333" fill="#333333"/>
	</g>
	<g>
		<path d="M15.529,31.302c-0.232,0-0.464-0.091-0.638-0.271c-0.341-0.352-0.332-0.914,0.021-1.255    l14.471-14.004L14.912,1.768c-0.352-0.34-0.361-0.902-0.021-1.255c0.342-0.352,0.902-0.36,1.255-0.02l15.13,14.642    c0.173,0.167,0.27,0.397,0.27,0.638c0,0.24-0.097,0.47-0.27,0.637l-15.13,14.643C15.974,31.219,15.751,31.302,15.529,31.302z" data-original="#010002" class="active-path" data-old_color="#333333" fill="#333333"/>
	</g>
</g></g> </svg>
